<svg xmlns="http://www.w3.org/2000/svg" width="100%" height="100%" viewBox="0 0 64 64"><defs><linearGradient id="bg" x1="0%" x2="100%" y1="0%" y2="100%"><stop offset="0%" stop-color="#1E293B"/><stop offset="100%" stop-color="#0F172A"/></linearGradient><linearGradient id="gold" x1="0%" x2="100%" y1="0%" y2="100%"><stop offset="0%" stop-color="#FEF08A"/><stop offset="50%" stop-color="#F59E0B"/><stop offset="100%" stop-color="#B45309"/></linearGradient><linearGradient id="silver" x1="0%" x2="0%" y1="0%" y2="100%"><stop offset="0%" stop-color="#FFF"/><stop offset="70%" stop-color="#E2E8F0"/><stop offset="100%" stop-color="#94A3B8"/></linearGradient><filter id="shadow" width="140%" height="140%" x="-20%" y="-20%"><feDropShadow dx="0" dy="2" flood-color="#000" flood-opacity=".5" stdDeviation="1.5"/></filter></defs><rect width="60" height="60" x="2" y="2" fill="url(#bg)" stroke="url(#gold)" stroke-width="2.5" rx="14"/><circle cx="32" cy="34" r="17" fill="none" stroke="url(#gold)" stroke-width="3" opacity=".95"/><g stroke="url(#gold)" stroke-linecap="round" stroke-width="4" opacity=".95"><line x1="32" x2="32" y1="11" y2="15"/><line x1="32" x2="32" y1="53" y2="57"/><line x1="11" x2="15" y1="34" y2="34"/><line x1="49" x2="53" y1="34" y2="34"/><line x1="17" x2="20" y1="19" y2="22"/><line x1="44" x2="47" y1="46" y2="49"/><line x1="47" x2="44" y1="19" y2="22"/><line x1="20" x2="17" y1="46" y2="49"/></g><g filter="url(#shadow)"><path fill="url(#silver)" d="M 12 48 L 26 22 C 27 20, 29 20, 30 22 L 40 48 L 34 48 L 28 34 L 22 48 Z"/><path fill="url(#silver)" d="M 24 48 L 34 26 C 35 24, 37 24, 38 26 L 52 48 L 46 48 L 38 34 L 32 48 Z"/></g><rect width="28" height="5" x="18" y="36" fill="#0F172A" stroke="url(#gold)" stroke-width="1.2" filter="url(#shadow)" rx="1.5"/></svg>